<?xml version="1.0" encoding="UTF-8" standalone="no"?>
<!DOCTYPE svg PUBLIC "-//W3C//DTD SVG 1.1//EN" "http://www.w3.org/Graphics/SVG/1.1/DTD/svg11.dtd">
<svg version="1.1" xmlns="http://www.w3.org/2000/svg" xmlns:xlink="http://www.w3.org/1999/xlink" preserveAspectRatio="xMidYMid meet" viewBox="0 0 112 112" width="112" height="112"><defs><path d="M9.7 73.49C9.7 64.01 2.01 56.31 -7.48 56.31C-16.96 56.31 -24.66 64.01 -24.66 73.49C-24.66 82.97 -16.96 90.67 -7.48 90.67C2.01 90.67 9.7 82.97 9.7 73.49Z" id="b9GkxNrHT"></path><path d="M104.33 90.53C113.82 90.53 121.51 82.83 121.51 73.34C121.51 63.86 113.82 56.16 104.33 56.16C94.85 56.16 87.15 63.86 87.15 73.34C87.15 82.83 94.85 90.53 104.33 90.53Z" id="c4BklRRmJ"></path><path d="M39.66 16.42C42.35 25.51 37.16 35.08 28.07 37.78C18.98 40.48 9.41 35.28 6.71 26.19C4.02 17.1 9.21 7.53 18.3 4.83C27.39 2.14 36.96 7.33 39.66 16.42Z" id="b1BRO7ZLRx"></path><path d="M68.02 45.6C68.02 55.09 60.32 62.79 50.84 62.79C41.36 62.79 33.66 55.09 33.66 45.6C33.66 36.12 41.36 28.42 50.84 28.42C60.32 28.42 68.02 36.12 68.02 45.6Z" id="b2SwoR1dS"></path><path d="M82.76 69.34C82.76 78.83 75.06 86.53 65.58 86.53C56.1 86.53 48.4 78.83 48.4 69.34C48.4 59.86 56.1 52.16 65.58 52.16C75.06 52.16 82.76 59.86 82.76 69.34Z" id="a32MD9bdC9"></path><path d="M102.42 32.65C106.97 40.97 103.92 51.42 95.61 55.98C87.29 60.54 76.84 57.49 72.28 49.17C67.72 40.85 70.77 30.4 79.09 25.84C87.41 21.29 97.86 24.34 102.42 32.65Z" id="a1kgpnkprJ"></path><path d="M-6 167.21C-6 176.69 -13.7 184.39 -23.18 184.39C-32.66 184.39 -40.36 176.69 -40.36 167.21C-40.36 157.73 -32.66 150.03 -23.18 150.03C-13.7 150.03 -6 157.73 -6 167.21Z" id="bxptqfny"></path><path d="M117.6 30.28C117.6 39.77 109.9 47.47 100.42 47.47C90.93 47.47 83.23 39.77 83.23 30.28C83.23 20.8 90.93 13.1 100.42 13.1C109.9 13.1 117.6 20.8 117.6 30.28Z" id="i1c4aecfIo"></path><path d="M71.15 100.68C64.45 107.38 53.56 107.38 46.85 100.68C40.15 93.97 40.15 83.08 46.85 76.38C53.56 69.67 64.45 69.67 71.15 76.38C77.86 83.08 77.86 93.97 71.15 100.68Z" id="g1JKMsJgHT"></path><path d="M79.88 10.18C79.88 19.67 72.18 27.36 62.69 27.36C53.21 27.36 45.51 19.67 45.51 10.18C45.51 0.7 53.21 -7 62.69 -7C72.18 -7 79.88 0.7 79.88 10.18Z" id="a1whU5YfUC"></path><path d="M41.82 88.53C41.82 79.04 34.12 71.34 24.64 71.34C15.16 71.34 7.46 79.04 7.46 88.53C7.46 98.01 15.16 105.71 24.64 105.71C34.12 105.71 41.82 98.01 41.82 88.53Z" id="f3D87PglA9"></path><path d="M101.4 85.18C101.4 94.66 93.7 102.36 84.21 102.36C74.73 102.36 67.03 94.66 67.03 85.18C67.03 75.69 74.73 67.99 84.21 67.99C93.7 67.99 101.4 75.69 101.4 85.18Z" id="c9rUvsUEg"></path><path d="M6.02 30.28C6.02 39.77 -1.68 47.47 -11.16 47.47C-20.64 47.47 -28.34 39.77 -28.34 30.28C-28.34 20.8 -20.64 13.1 -11.16 13.1C-1.68 13.1 6.02 20.8 6.02 30.28Z" id="ddQwzi64z"></path><path d="M79.88 122.18C79.88 131.67 72.18 139.36 62.69 139.36C53.21 139.36 45.51 131.67 45.51 122.18C45.51 112.7 53.21 105 62.69 105C72.18 105 79.88 112.7 79.88 122.18Z" id="auNXPZ4iS"></path><path d="M41.82 54.16C41.82 63.64 34.12 71.34 24.64 71.34C15.16 71.34 7.46 63.64 7.46 54.16C7.46 44.68 15.16 36.98 24.64 36.98C34.12 36.98 41.82 44.68 41.82 54.16Z" id="aeiZ7OSni"></path><path d="M14.18 109C14.18 118.48 6.48 126.18 -3 126.18C-12.48 126.18 -20.18 118.48 -20.18 109C-20.18 99.52 -12.48 91.82 -3 91.82C6.48 91.82 14.18 99.52 14.18 109Z" id="ahLHaR9en"></path><path d="M126.18 -3C126.18 6.48 118.48 14.18 109 14.18C99.52 14.18 91.82 6.48 91.82 -3C91.82 -12.48 99.52 -20.18 109 -20.18C118.48 -20.18 126.18 -12.48 126.18 -3Z" id="d4Ua4dVmDz"></path><path d="M14.18 -3C14.18 6.48 6.48 14.18 -3 14.18C-12.48 14.18 -20.18 6.48 -20.18 -3C-20.18 -12.48 -12.48 -20.18 -3 -20.18C6.48 -20.18 14.18 -12.48 14.18 -3Z" id="abmfoEb70"></path><path d="M126.18 109C126.18 118.48 118.48 126.18 109 126.18C99.52 126.18 91.82 118.48 91.82 109C91.82 99.52 99.52 91.82 109 91.82C118.48 91.82 126.18 99.52 126.18 109Z" id="c4pq375ARX"></path>
<text class="backgroundtext" id="chX0pN9fK" x="59.73" y="-7.82" font-size="14" font-family="Arial" font-weight="normal" font-style="normal" letter-spacing="0" alignment-baseline="before-edge" transform="matrix(1 0 0 1 -3.550847457627114 19.28707140446957)" xml:space="preserve" dominant-baseline="text-before-edge">

<tspan x="59.73" dy="0em" alignment-baseline="before-edge" dominant-baseline="text-before-edge" text-anchor="middle">Made by aone for use in keka.io</tspan>

</text>
</defs><g visibility="inherit"><g visibility="inherit"><g visibility="inherit"><use xlink:href="#b9GkxNrHT" opacity="1" fill="#000000" fill-opacity="0.06"></use></g><g visibility="inherit"><use xlink:href="#c4BklRRmJ" opacity="1" fill="#000000" fill-opacity="0.06"></use></g><g visibility="inherit"><use xlink:href="#b1BRO7ZLRx" opacity="1" fill="#000000" fill-opacity="0.05"></use></g><g visibility="inherit"><use xlink:href="#b2SwoR1dS" opacity="1" fill="#000000" fill-opacity="0.06"></use></g><g visibility="inherit"><use xlink:href="#a32MD9bdC9" opacity="1" fill="#000000" fill-opacity="0.03"></use></g><g visibility="inherit"><use xlink:href="#a1kgpnkprJ" opacity="1" fill="#000000" fill-opacity="0.04"></use></g><g visibility="inherit"><use xlink:href="#bxptqfny" opacity="1" fill="#000000" fill-opacity="0.03"></use></g><g visibility="inherit"><use xlink:href="#i1c4aecfIo" opacity="1" fill="#000000" fill-opacity="0.03"></use></g><g visibility="inherit"><use xlink:href="#g1JKMsJgHT" opacity="1" fill="#000000" fill-opacity="0.03"></use></g><g visibility="inherit"><use xlink:href="#a1whU5YfUC" opacity="1" fill="#000000" fill-opacity="0.04"></use></g><g visibility="inherit"><use xlink:href="#f3D87PglA9" opacity="1" fill="#000000" fill-opacity="0.06"></use></g><g visibility="inherit"><use xlink:href="#c9rUvsUEg" opacity="1" fill="#000000" fill-opacity="0.06"></use></g><g visibility="inherit"><use xlink:href="#ddQwzi64z" opacity="1" fill="#000000" fill-opacity="0.03"></use></g><g visibility="inherit"><use xlink:href="#auNXPZ4iS" opacity="1" fill="#000000" fill-opacity="0.04"></use></g><g visibility="inherit"><use xlink:href="#aeiZ7OSni" opacity="1" fill="#000000" fill-opacity="0.03"></use></g><g visibility="inherit"><use xlink:href="#ahLHaR9en" opacity="1" fill="#000000" fill-opacity="0.06"></use></g><g visibility="inherit"><use xlink:href="#d4Ua4dVmDz" opacity="1" fill="#000000" fill-opacity="0.06"></use></g><g visibility="inherit"><use xlink:href="#abmfoEb70" opacity="1" fill="#000000" fill-opacity="0.06"></use></g><g visibility="inherit"><use xlink:href="#c4pq375ARX" opacity="1" fill="#000000" fill-opacity="0.06"></use></g><g id="c1vvCstB3D" visibility="inherit"><use xlink:href="#chX0pN9fK" opacity="0" fill="#FFFFFF" fill-opacity="1"></use></g></g></g></svg>